<?xml version="1.0" encoding="utf-8"?>
<!-- Generator: Adobe Illustrator 25.2.1, SVG Export Plug-In . SVG Version: 6.00 Build 0)  -->
<svg version="1.1" id="Layer_1" xmlns="http://www.w3.org/2000/svg" xmlns:xlink="http://www.w3.org/1999/xlink" x="0px" y="0px"
	 viewBox="0 0 418.7 82.7" style="enable-background:new 0 0 418.7 82.7;" xml:space="preserve">
<style type="text/css">
	.st0{fill:#FF6C0E;}
	.st1{fill:#FFC629;}
	.st2{fill:#FF9E18;}
	.st3{fill:#0A2240;}
</style>
<g>
	<g>
		<polygon class="st0" points="52.6,52.2 80.9,41.3 52.6,30.5 41.7,2.1 30.8,30.5 2.5,41.3 30.8,52.2 41.7,80.5 		"/>
		<polygon class="st1" points="52.6,30.5 41.7,2.1 41.7,41.3 		"/>
		<g>
			<polygon class="st2" points="80.9,41.3 52.6,30.5 41.7,41.3 			"/>
		</g>
	</g>
	<g>
		<g>
			<path class="st3" d="M103.3,21.2c0-2.7,1.4-4,4.2-4h2.4v43.1h26.1v5.4h-32.6V21.2z"/>
			<path class="st3" d="M159.2,65.7h-6.6v-19l-16.5-29.6h8.1l11.6,22.3l10.3-19.7c0.9-1.8,2.5-2.7,4.7-2.7h4.7l-16.5,29.4V65.7z"/>
			<path class="st3" d="M190.3,21.2c0-2.7,1.4-4,4-4h16.9c9.8-0.1,14.7,4.2,14.9,13c-0.2,6.1-2.6,10.4-7.4,12.8
				c2.9,0.6,4.7,2,5.6,4.5c0.7,2.2,1.2,6,1.4,11.4c0.2,3.9,0.5,6.2,0.8,6.8h-6.8c-0.6-0.8-0.8-2.3-0.8-4.3
				c-0.1-7.5-0.8-12.1-2.1-13.8c-0.7-1.2-2.1-1.8-4-1.8h-15.9v19.9h-6.6V21.2z M210.9,40.3c6.1,0,9.1-3.3,8.8-10
				c0-4.8-2.9-7.4-8.6-7.7h-14.2v17.6L210.9,40.3z"/>
			<path class="st3" d="M257,19.6c0.6-1.7,1.8-2.5,3.8-2.5h6.2l17.2,48.6h-7.8l-4.1-11.3H252L248,65.7H241L257,19.6z M253.5,48.8
				h17.2l-8.5-25.1L253.5,48.8z"/>
			<path class="st3" d="M304.4,49.6c0.1,3.5,1.3,6.3,3.6,8.2c2.3,2,5.4,3.1,9.1,3.1c4,0,7-0.7,8.9-2c2.4-1.8,3.6-3.9,3.6-6.3
				c0.1-2.7-0.8-4.6-2.8-5.7c-2.2-1.4-5.6-2.5-10.2-3.3c-7.4-1.3-12.2-3.2-14.2-5.6c-1.9-2-2.8-4.7-2.8-8.1c0-4,1.6-7.3,4.7-9.8
				c3.1-2.6,7.3-3.9,12.7-3.9c5.2,0,9.4,1.3,12.6,4c3,2.7,4.6,6.2,4.7,10.6h-2.8c-1.8,0-2.8-0.6-3.2-1.7c-1.7-5.1-5.6-7.7-11.7-7.7
				c-7.2,0-10.8,2.6-11,7.8c-0.2,4.1,3.6,7,11.4,8.7c3.2,0.7,6.2,1.4,9.2,2.2c6.3,1.9,9.5,5.7,9.5,11.6c0,4.5-1.7,8-5,10.6
				c-3.3,2.6-7.9,3.9-13.5,3.9c-6.2,0-10.8-1.4-13.8-4.2c-3.3-2.8-5-7-5.3-12.6H304.4z"/>
			<path class="st3" d="M350.5,21.2c0-2.7,1.4-4,4.2-4h2.4v48.6h-6.6V21.2z"/>
			<path class="st3" d="M377.6,49.6c0.1,3.5,1.3,6.3,3.6,8.2c2.3,2,5.3,3.1,9.1,3.1c4,0,7-0.7,8.9-2c2.4-1.8,3.6-3.9,3.6-6.3
				c0.1-2.7-0.8-4.6-2.8-5.7c-2.2-1.4-5.6-2.5-10.2-3.3c-7.4-1.3-12.2-3.2-14.2-5.6c-1.9-2-2.8-4.7-2.8-8.1c0-4,1.6-7.3,4.7-9.8
				c3.1-2.6,7.3-3.9,12.7-3.9c5.2,0,9.4,1.3,12.6,4c3,2.7,4.6,6.2,4.7,10.6h-2.8c-1.8,0-2.8-0.6-3.2-1.7c-1.7-5.1-5.6-7.7-11.7-7.7
				c-7.2,0-10.8,2.6-11,7.8c-0.2,4.1,3.6,7,11.4,8.7c3.2,0.7,6.2,1.4,9.2,2.2c6.3,1.9,9.5,5.7,9.5,11.6c0,4.5-1.7,8-5,10.6
				c-3.3,2.6-7.9,3.9-13.5,3.9c-6.2,0-10.8-1.4-13.8-4.2c-3.3-2.8-5-7-5.3-12.6H377.6z"/>
		</g>
		<g>
			<path class="st3" d="M412.4,11.2c0.6,0,1.3,0.2,1.9,0.5c0.6,0.3,1.1,0.8,1.4,1.4c0.3,0.6,0.5,1.3,0.5,1.9c0,0.7-0.2,1.3-0.5,1.9
				c-0.3,0.6-0.8,1.1-1.4,1.4c-0.6,0.3-1.2,0.5-1.9,0.5c-0.7,0-1.3-0.2-1.9-0.5c-0.6-0.3-1.1-0.8-1.4-1.4c-0.3-0.6-0.5-1.2-0.5-1.9
				c0-0.7,0.2-1.3,0.5-1.9c0.3-0.6,0.8-1.1,1.4-1.4C411.1,11.4,411.7,11.2,412.4,11.2z M412.4,11.8c-0.5,0-1.1,0.1-1.6,0.4
				c-0.5,0.3-0.9,0.7-1.2,1.2c-0.3,0.5-0.4,1-0.4,1.6c0,0.6,0.1,1.1,0.4,1.6c0.3,0.5,0.7,0.9,1.2,1.2c0.5,0.3,1,0.4,1.6,0.4
				c0.6,0,1.1-0.1,1.6-0.4c0.5-0.3,0.9-0.7,1.2-1.2c0.3-0.5,0.4-1,0.4-1.6c0-0.6-0.1-1.1-0.4-1.6c-0.3-0.5-0.7-0.9-1.2-1.2
				C413.4,12,412.9,11.8,412.4,11.8z M410.7,17.1V13h1.4c0.5,0,0.8,0,1.1,0.1c0.2,0.1,0.4,0.2,0.5,0.4c0.1,0.2,0.2,0.4,0.2,0.6
				c0,0.3-0.1,0.6-0.3,0.8c-0.2,0.2-0.5,0.3-0.9,0.4c0.1,0.1,0.3,0.1,0.3,0.2c0.2,0.2,0.4,0.4,0.6,0.8l0.5,0.8h-0.8l-0.4-0.6
				c-0.3-0.5-0.5-0.8-0.7-1c-0.1-0.1-0.3-0.1-0.5-0.1h-0.4v1.8H410.7z M411.3,14.8h0.8c0.4,0,0.6-0.1,0.8-0.2
				c0.1-0.1,0.2-0.3,0.2-0.5c0-0.1,0-0.2-0.1-0.3c-0.1-0.1-0.2-0.2-0.3-0.2c-0.1,0-0.3-0.1-0.7-0.1h-0.8V14.8z"/>
		</g>
	</g>
</g>
</svg>
